<?xml version="1.0" encoding="UTF-8"?> <svg xmlns="http://www.w3.org/2000/svg" xmlns:xlink="http://www.w3.org/1999/xlink" width="545px" height="144px" viewBox="0 0 545 144"><!-- Generator: Sketch 57 (83077) - https://sketch.com --><title>Pricelab</title><desc>Created with Sketch.</desc><g id="Page-1" stroke="none" stroke-width="1" fill="none" fill-rule="evenodd"><g id="Artboard" transform="translate(-136.000000, -1376.000000)"><g id="Pricelab" transform="translate(129.000000, 1373.000000)"><rect id="#" x="0" y="0" width="563" height="150"></rect><ellipse id="Oval" fill="#FF0000" cx="78.82" cy="75" rx="71.3133333" ry="71.25"></ellipse><path d="M64.0021006,45 L74.0688958,55.5783853 L52.0477812,76.112898 L74.0688958,101.003216 L63.3729259,110.959344 L30.0266667,76.112898 L64.0021006,45 Z M91.392915,45 L125.368349,76.112898 L92.0220897,110.959344 L81.3261198,101.003216 L103.347234,76.112898 L81.3261198,55.5783853 L91.392915,45 Z" id="Combined-Shape" fill="#FFFFFF"></path><path d="M179.73212,44.19375 L204.939507,44.19375 C211.385263,44.19375 216.39216,45.7749842 219.960347,48.9375 C223.528533,52.1000158 225.3126,56.584971 225.3126,62.3925 C225.3126,68.1425287 223.528533,72.6274839 219.960347,75.8475 C216.39216,79.0675161 211.385263,80.6775 204.939507,80.6775 L188.623767,80.6775 L188.623767,105 L179.73212,105 L179.73212,44.19375 Z M203.989913,73.51875 C212.50752,73.51875 216.76626,69.8100371 216.76626,62.3925 C216.76626,55.0324632 212.50752,51.3525 203.989913,51.3525 L188.623767,51.3525 L188.623767,73.51875 L203.989913,73.51875 Z M260.620207,69.20625 L255.35428,69.72375 C251.210579,70.126252 248.232339,71.3912394 246.41947,73.51875 C244.606601,75.6462606 243.70018,78.3487336 243.70018,81.62625 L243.70018,105 L234.981187,105 L234.981187,62.91 L243.4412,62.91 L243.4412,70.24125 C245.685705,65.2962253 250.260972,62.5650026 257.16714,62.0475 L260.01592,61.875 L260.620207,69.20625 Z M266.576747,62.91 L275.29574,62.91 L275.29574,105 L266.576747,105 L266.576747,62.91 Z M275.986353,44.1075 L275.986353,53.16375 L265.97246,53.16375 L265.97246,44.1075 L275.986353,44.1075 Z M305.941707,105.60375 C301.682903,105.60375 297.985281,104.712509 294.84873,102.93 C291.712179,101.147491 289.295056,98.6318912 287.59729,95.383125 C285.899524,92.1343588 285.050653,88.3250218 285.050653,83.955 C285.050653,79.5849781 285.928299,75.7325167 287.683617,72.3975 C289.438934,69.0624833 291.913607,66.4750092 295.10771,64.635 C298.301813,62.7949908 302.02821,61.875 306.287013,61.875 C309.222135,61.875 312.056499,62.3637451 314.79019,63.34125 C317.523881,64.3187549 319.753965,65.6412417 321.480507,67.30875 L318.80438,73.51875 C315.005988,70.4137345 311.063776,68.86125 306.977627,68.86125 C302.949029,68.86125 299.798137,70.1693619 297.524857,72.785625 C295.251576,75.4018881 294.114953,79.0962261 294.114953,83.86875 C294.114953,88.5837736 295.237189,92.2206122 297.481693,94.779375 C299.726198,97.3381378 302.891477,98.6175 306.977627,98.6175 C311.063776,98.6175 315.005988,97.0650155 318.80438,93.96 L321.480507,100.25625 C319.638862,101.923758 317.33684,103.23187 314.574373,104.180625 C311.811906,105.12938 308.934379,105.60375 305.941707,105.60375 Z M365.248127,85.42125 L335.465427,85.42125 C336.098492,94.3337946 340.529883,98.79 348.759733,98.79 C353.594051,98.79 357.967892,97.2087658 361.881387,94.04625 L364.557513,100.17 C362.600766,101.837508 360.183643,103.159995 357.306073,104.1375 C354.428503,105.115005 351.493426,105.60375 348.500753,105.60375 C341.76724,105.60375 336.458203,103.677519 332.573483,99.825 C328.688764,95.9724807 326.746433,90.6537839 326.746433,83.86875 C326.746433,79.5562284 327.595304,75.7325167 329.29307,72.3975 C330.990836,69.0624833 333.379183,66.4750092 336.458183,64.635 C339.537183,62.7949908 343.033378,61.875 346.946873,61.875 C352.644462,61.875 357.119016,63.7149816 360.37067,67.395 C363.622324,71.0750184 365.248127,76.1637175 365.248127,82.66125 L365.248127,85.42125 Z M347.119527,68.2575 C343.781546,68.2575 341.119833,69.3068645 339.13431,71.405625 C337.148787,73.5043855 335.954613,76.5087304 335.551753,80.41875 L357.737707,80.41875 C357.565052,76.5087304 356.572306,73.5043855 354.759437,71.405625 C352.946568,69.3068645 350.399956,68.2575 347.119527,68.2575 Z" id="PriceLabs" fill="#FF0000" fill-rule="nonzero"></path><path d="M439.661713,61.875 C445.30175,61.875 449.488552,63.2837359 452.222243,66.10125 C454.955935,68.9187641 456.32276,73.2024713 456.32276,78.9525 L456.32276,105 L447.949073,105 L447.949073,98.01375 C446.855597,100.486262 445.229794,102.369369 443.071617,103.663125 C440.913439,104.956881 438.395603,105.60375 435.518033,105.60375 C432.755566,105.60375 430.223343,105.043131 427.921287,103.921875 C425.619231,102.800619 423.820776,101.23376 422.52587,99.22125 C421.230964,97.2087399 420.58352,94.9662624 420.58352,92.49375 C420.58352,89.4462348 421.37484,87.0456338 422.957503,85.291875 C424.540167,83.5381162 427.158716,82.2875037 430.81323,81.54 C434.467744,80.7924963 439.489028,80.41875 445.877233,80.41875 L447.862747,80.41875 L447.862747,77.9175 C447.862747,74.6974839 447.186528,72.3687572 445.83407,70.93125 C444.481612,69.4937428 442.280304,68.775 439.23008,68.775 C434.453314,68.775 429.676619,70.2412353 424.899853,73.17375 L422.310053,67.05 C424.554558,65.4974922 427.273821,64.2468797 430.467923,63.298125 C433.662026,62.3493703 436.726592,61.875 439.661713,61.875 Z M476.954833,44.19375 L476.954833,69.81 C478.220964,67.2799873 480.062581,65.3250069 482.47974,63.945 C484.896899,62.5649931 487.6881,61.875 490.853427,61.875 C494.536716,61.875 497.788321,62.7662411 500.60834,64.54875 C503.428359,66.3312589 505.629667,68.8612336 507.21233,72.13875 C508.794993,75.4162664 509.586313,79.2399781 509.586313,83.61 C509.586313,87.9225216 508.794993,91.7462333 507.21233,95.08125 C505.629667,98.4162667 503.413971,101.003741 500.565177,102.84375 C497.716382,104.683759 494.479165,105.60375 490.853427,105.60375 C487.6881,105.60375 484.896899,104.928132 482.47974,103.576875 C480.062581,102.225618 478.220964,100.285013 476.954833,97.755 L476.954833,105 L468.23584,105 L468.23584,44.19375 L476.954833,44.19375 Z M534.7937,61.875 C537.786373,61.875 540.635124,62.3493703 543.34004,63.298125 C546.044956,64.2468797 548.375752,65.5837414 550.3325,67.30875 L547.656373,73.4325 C543.512673,70.1549836 539.225158,68.51625 534.7937,68.51625 C532.146336,68.51625 530.060129,69.0337448 528.535017,70.06875 C527.009905,71.1037552 526.24736,72.5124911 526.24736,74.295 C526.24736,75.7325072 526.722152,76.8968705 527.67175,77.788125 C528.621348,78.6793795 530.13205,79.3549977 532.2039,79.815 L539.369013,81.45375 C543.455163,82.3737546 546.447791,83.7968654 548.346987,85.723125 C550.246183,87.6493846 551.195767,90.1649845 551.195767,93.27 C551.195767,97.065019 549.65629,100.069364 546.57729,102.283125 C543.49829,104.496886 539.340264,105.60375 534.103087,105.60375 C526.794059,105.60375 520.95268,103.821268 516.578773,100.25625 L519.2549,93.96 C523.571255,97.2950167 528.606927,98.9625 534.362067,98.9625 C537.182085,98.9625 539.34023,98.4881297 540.836567,97.539375 C542.332903,96.5906203 543.08106,95.2537586 543.08106,93.52875 C543.08106,92.0337425 542.577493,90.8550043 541.570343,89.9925 C540.563194,89.1299957 538.82229,88.4112529 536.34758,87.83625 L529.35512,86.28375 C525.614279,85.4212457 522.794303,84.0125098 520.895107,82.0575 C518.995911,80.1024902 518.046327,77.630015 518.046327,74.64 C518.046327,70.844981 519.585803,67.7687618 522.664803,65.41125 C525.743803,63.0537382 529.786728,61.875 534.7937,61.875 Z M384.757953,44.19375 L384.757953,97.5825 L414.281673,97.5825 L414.281673,105 L375.866307,105 L375.866307,44.19375 L384.757953,44.19375 Z M447.862747,85.335 L446.308867,85.335 C441.819858,85.335 438.366825,85.536248 435.949667,85.93875 C433.532508,86.341252 431.805992,87.0168703 430.770067,87.965625 C429.734141,88.9143797 429.216187,90.2799911 429.216187,92.0625 C429.216187,94.0750101 429.949956,95.7568682 431.417517,97.108125 C432.885077,98.4593818 434.769857,99.135 437.071913,99.135 C440.23724,99.135 442.827014,98.0568858 444.841313,95.900625 C446.855612,93.7443642 447.862747,90.970017 447.862747,87.5775 L447.862747,85.335 Z M488.781587,68.86125 C484.983194,68.86125 482.062505,70.1549871 480.01943,72.7425 C477.976355,75.3300129 476.954833,79.0099761 476.954833,83.7825 C476.954833,88.5550239 477.976355,92.2349871 480.01943,94.8225 C482.062505,97.4100129 484.983194,98.70375 488.781587,98.70375 C492.522428,98.70375 495.443117,97.3812632 497.543743,94.73625 C499.644369,92.0912368 500.694667,88.3825239 500.694667,83.61 C500.694667,78.8949764 499.658757,75.2581378 497.586907,72.699375 C495.515056,70.1406122 492.579979,68.86125 488.781587,68.86125 Z" id="Combined-Shape" fill="#1C1C1C" fill-rule="nonzero"></path></g></g></g></svg> 